<mxfile host="app.diagrams.net" modified="2024-03-07T02:58:59.441Z" agent="Mozilla/5.0 (Windows NT 10.0; Win64; x64) AppleWebKit/537.36 (KHTML, like Gecko) Chrome/122.0.0.0 Safari/537.36" etag="a5Svh8f5rSUqhFfjqdJb" version="24.0.2" type="device">
  <diagram id="C5RBs43oDa-KdzZeNtuy" name="Page-1">
    <mxGraphModel dx="4897" dy="2173" grid="1" gridSize="10" guides="1" tooltips="1" connect="1" arrows="1" fold="1" page="1" pageScale="1" pageWidth="827" pageHeight="1169" math="0" shadow="0">
      <root>
        <mxCell id="WIyWlLk6GJQsqaUBKTNV-0" />
        <mxCell id="WIyWlLk6GJQsqaUBKTNV-1" parent="WIyWlLk6GJQsqaUBKTNV-0" />
        <mxCell id="RhxcYOBsnrcNaUZTfR1e-8" style="edgeStyle=orthogonalEdgeStyle;rounded=0;orthogonalLoop=1;jettySize=auto;html=1;entryX=0.5;entryY=0;entryDx=0;entryDy=0;fontSize=16;" edge="1" parent="WIyWlLk6GJQsqaUBKTNV-1" source="RhxcYOBsnrcNaUZTfR1e-0" target="RhxcYOBsnrcNaUZTfR1e-3">
          <mxGeometry relative="1" as="geometry" />
        </mxCell>
        <mxCell id="RhxcYOBsnrcNaUZTfR1e-0" value="Start" style="ellipse;whiteSpace=wrap;html=1;fontSize=16;" vertex="1" parent="WIyWlLk6GJQsqaUBKTNV-1">
          <mxGeometry x="120" y="80" width="110" height="60" as="geometry" />
        </mxCell>
        <mxCell id="RhxcYOBsnrcNaUZTfR1e-6" style="edgeStyle=orthogonalEdgeStyle;rounded=0;orthogonalLoop=1;jettySize=auto;html=1;fontSize=16;" edge="1" parent="WIyWlLk6GJQsqaUBKTNV-1" source="RhxcYOBsnrcNaUZTfR1e-1" target="RhxcYOBsnrcNaUZTfR1e-5">
          <mxGeometry relative="1" as="geometry" />
        </mxCell>
        <mxCell id="RhxcYOBsnrcNaUZTfR1e-1" value="S=a*b&lt;div style=&quot;font-size: 16px;&quot;&gt;P=2(a+b)&lt;/div&gt;" style="rounded=0;whiteSpace=wrap;html=1;fontSize=16;" vertex="1" parent="WIyWlLk6GJQsqaUBKTNV-1">
          <mxGeometry x="210" y="370" width="120" height="60" as="geometry" />
        </mxCell>
        <mxCell id="RhxcYOBsnrcNaUZTfR1e-2" value="End" style="ellipse;whiteSpace=wrap;html=1;fontSize=16;" vertex="1" parent="WIyWlLk6GJQsqaUBKTNV-1">
          <mxGeometry x="410" y="570" width="120" height="80" as="geometry" />
        </mxCell>
        <mxCell id="RhxcYOBsnrcNaUZTfR1e-3" value="int a,b,P,S" style="shape=parallelogram;perimeter=parallelogramPerimeter;whiteSpace=wrap;html=1;fixedSize=1;fontSize=16;" vertex="1" parent="WIyWlLk6GJQsqaUBKTNV-1">
          <mxGeometry x="120" y="190" width="110" height="60" as="geometry" />
        </mxCell>
        <mxCell id="RhxcYOBsnrcNaUZTfR1e-7" style="edgeStyle=orthogonalEdgeStyle;rounded=0;orthogonalLoop=1;jettySize=auto;html=1;exitX=0.415;exitY=0.983;exitDx=0;exitDy=0;exitPerimeter=0;fontSize=16;" edge="1" parent="WIyWlLk6GJQsqaUBKTNV-1" source="RhxcYOBsnrcNaUZTfR1e-5" target="RhxcYOBsnrcNaUZTfR1e-2">
          <mxGeometry relative="1" as="geometry" />
        </mxCell>
        <mxCell id="RhxcYOBsnrcNaUZTfR1e-5" value="Print S,P" style="shape=document;whiteSpace=wrap;html=1;boundedLbl=1;fontSize=16;" vertex="1" parent="WIyWlLk6GJQsqaUBKTNV-1">
          <mxGeometry x="210" y="470" width="120" height="80" as="geometry" />
        </mxCell>
        <mxCell id="RhxcYOBsnrcNaUZTfR1e-9" style="edgeStyle=orthogonalEdgeStyle;rounded=0;orthogonalLoop=1;jettySize=auto;html=1;fontSize=16;" edge="1" parent="WIyWlLk6GJQsqaUBKTNV-1" source="RhxcYOBsnrcNaUZTfR1e-3" target="RhxcYOBsnrcNaUZTfR1e-1">
          <mxGeometry relative="1" as="geometry" />
        </mxCell>
        <mxCell id="RhxcYOBsnrcNaUZTfR1e-12" style="edgeStyle=orthogonalEdgeStyle;rounded=0;orthogonalLoop=1;jettySize=auto;html=1;entryX=0.5;entryY=0;entryDx=0;entryDy=0;fontSize=16;" edge="1" parent="WIyWlLk6GJQsqaUBKTNV-1" source="RhxcYOBsnrcNaUZTfR1e-10" target="RhxcYOBsnrcNaUZTfR1e-11">
          <mxGeometry relative="1" as="geometry" />
        </mxCell>
        <mxCell id="RhxcYOBsnrcNaUZTfR1e-10" value="Start" style="ellipse;whiteSpace=wrap;html=1;fontSize=16;" vertex="1" parent="WIyWlLk6GJQsqaUBKTNV-1">
          <mxGeometry x="-370" y="20" width="110" height="80" as="geometry" />
        </mxCell>
        <mxCell id="RhxcYOBsnrcNaUZTfR1e-11" value="int a" style="shape=parallelogram;perimeter=parallelogramPerimeter;whiteSpace=wrap;html=1;fixedSize=1;fontSize=16;" vertex="1" parent="WIyWlLk6GJQsqaUBKTNV-1">
          <mxGeometry x="-370" y="160" width="120" height="60" as="geometry" />
        </mxCell>
        <mxCell id="RhxcYOBsnrcNaUZTfR1e-16" style="edgeStyle=orthogonalEdgeStyle;rounded=0;orthogonalLoop=1;jettySize=auto;html=1;entryX=0.5;entryY=0;entryDx=0;entryDy=0;fontSize=16;" edge="1" parent="WIyWlLk6GJQsqaUBKTNV-1" source="RhxcYOBsnrcNaUZTfR1e-13" target="RhxcYOBsnrcNaUZTfR1e-15">
          <mxGeometry relative="1" as="geometry">
            <Array as="points">
              <mxPoint x="-310" y="430" />
              <mxPoint x="-120" y="430" />
            </Array>
          </mxGeometry>
        </mxCell>
        <mxCell id="RhxcYOBsnrcNaUZTfR1e-37" style="edgeStyle=orthogonalEdgeStyle;rounded=0;orthogonalLoop=1;jettySize=auto;html=1;exitX=0;exitY=0.5;exitDx=0;exitDy=0;entryX=1;entryY=0.5;entryDx=0;entryDy=0;fontSize=16;" edge="1" parent="WIyWlLk6GJQsqaUBKTNV-1" source="RhxcYOBsnrcNaUZTfR1e-13" target="RhxcYOBsnrcNaUZTfR1e-36">
          <mxGeometry relative="1" as="geometry" />
        </mxCell>
        <mxCell id="RhxcYOBsnrcNaUZTfR1e-13" value="if a&amp;gt;=10,a&amp;lt;=99" style="rhombus;whiteSpace=wrap;html=1;fontSize=16;" vertex="1" parent="WIyWlLk6GJQsqaUBKTNV-1">
          <mxGeometry x="-392.5" y="280" width="165" height="120" as="geometry" />
        </mxCell>
        <mxCell id="RhxcYOBsnrcNaUZTfR1e-14" style="edgeStyle=orthogonalEdgeStyle;rounded=0;orthogonalLoop=1;jettySize=auto;html=1;entryX=0.5;entryY=0;entryDx=0;entryDy=0;fontSize=16;" edge="1" parent="WIyWlLk6GJQsqaUBKTNV-1" source="RhxcYOBsnrcNaUZTfR1e-11" target="RhxcYOBsnrcNaUZTfR1e-13">
          <mxGeometry relative="1" as="geometry" />
        </mxCell>
        <mxCell id="RhxcYOBsnrcNaUZTfR1e-53" style="edgeStyle=orthogonalEdgeStyle;rounded=0;orthogonalLoop=1;jettySize=auto;html=1;entryX=1;entryY=0.5;entryDx=0;entryDy=0;fontSize=16;" edge="1" parent="WIyWlLk6GJQsqaUBKTNV-1" source="RhxcYOBsnrcNaUZTfR1e-15" target="RhxcYOBsnrcNaUZTfR1e-11">
          <mxGeometry relative="1" as="geometry">
            <Array as="points">
              <mxPoint x="-120" y="180" />
              <mxPoint x="-260" y="180" />
            </Array>
          </mxGeometry>
        </mxCell>
        <mxCell id="RhxcYOBsnrcNaUZTfR1e-15" value="2 reqemli eded daxil edin" style="shape=document;whiteSpace=wrap;html=1;boundedLbl=1;fontSize=16;" vertex="1" parent="WIyWlLk6GJQsqaUBKTNV-1">
          <mxGeometry x="-180" y="390" width="120" height="80" as="geometry" />
        </mxCell>
        <mxCell id="RhxcYOBsnrcNaUZTfR1e-18" value="False" style="text;html=1;align=center;verticalAlign=middle;whiteSpace=wrap;rounded=0;fontSize=16;" vertex="1" parent="WIyWlLk6GJQsqaUBKTNV-1">
          <mxGeometry x="-270" y="400" width="60" height="30" as="geometry" />
        </mxCell>
        <mxCell id="RhxcYOBsnrcNaUZTfR1e-29" style="edgeStyle=orthogonalEdgeStyle;rounded=0;orthogonalLoop=1;jettySize=auto;html=1;fontSize=16;" edge="1" parent="WIyWlLk6GJQsqaUBKTNV-1" source="RhxcYOBsnrcNaUZTfR1e-21" target="RhxcYOBsnrcNaUZTfR1e-26">
          <mxGeometry relative="1" as="geometry" />
        </mxCell>
        <mxCell id="RhxcYOBsnrcNaUZTfR1e-21" value="int m,k" style="shape=parallelogram;perimeter=parallelogramPerimeter;whiteSpace=wrap;html=1;fixedSize=1;fontSize=16;" vertex="1" parent="WIyWlLk6GJQsqaUBKTNV-1">
          <mxGeometry x="760" y="200" width="110" height="60" as="geometry" />
        </mxCell>
        <mxCell id="RhxcYOBsnrcNaUZTfR1e-22" value="Start" style="ellipse;whiteSpace=wrap;html=1;fontSize=16;" vertex="1" parent="WIyWlLk6GJQsqaUBKTNV-1">
          <mxGeometry x="770" y="70" width="110" height="60" as="geometry" />
        </mxCell>
        <mxCell id="RhxcYOBsnrcNaUZTfR1e-23" value="End" style="ellipse;whiteSpace=wrap;html=1;fontSize=16;" vertex="1" parent="WIyWlLk6GJQsqaUBKTNV-1">
          <mxGeometry x="780" y="610" width="120" height="80" as="geometry" />
        </mxCell>
        <mxCell id="RhxcYOBsnrcNaUZTfR1e-24" value="kredit goture bilmezsiz" style="shape=document;whiteSpace=wrap;html=1;boundedLbl=1;fontSize=16;" vertex="1" parent="WIyWlLk6GJQsqaUBKTNV-1">
          <mxGeometry x="1000" y="310" width="120" height="80" as="geometry" />
        </mxCell>
        <mxCell id="RhxcYOBsnrcNaUZTfR1e-25" style="edgeStyle=orthogonalEdgeStyle;rounded=0;orthogonalLoop=1;jettySize=auto;html=1;entryX=0.5;entryY=0;entryDx=0;entryDy=0;fontSize=16;" edge="1" parent="WIyWlLk6GJQsqaUBKTNV-1" source="RhxcYOBsnrcNaUZTfR1e-22" target="RhxcYOBsnrcNaUZTfR1e-21">
          <mxGeometry relative="1" as="geometry" />
        </mxCell>
        <mxCell id="RhxcYOBsnrcNaUZTfR1e-28" style="edgeStyle=orthogonalEdgeStyle;rounded=0;orthogonalLoop=1;jettySize=auto;html=1;fontSize=16;" edge="1" parent="WIyWlLk6GJQsqaUBKTNV-1" source="RhxcYOBsnrcNaUZTfR1e-26" target="RhxcYOBsnrcNaUZTfR1e-27">
          <mxGeometry relative="1" as="geometry" />
        </mxCell>
        <mxCell id="RhxcYOBsnrcNaUZTfR1e-31" style="edgeStyle=orthogonalEdgeStyle;rounded=0;orthogonalLoop=1;jettySize=auto;html=1;fontSize=16;" edge="1" parent="WIyWlLk6GJQsqaUBKTNV-1" source="RhxcYOBsnrcNaUZTfR1e-26" target="RhxcYOBsnrcNaUZTfR1e-24">
          <mxGeometry relative="1" as="geometry" />
        </mxCell>
        <mxCell id="RhxcYOBsnrcNaUZTfR1e-26" value="k&amp;lt;m*12*0,6" style="rhombus;whiteSpace=wrap;html=1;fontSize=16;" vertex="1" parent="WIyWlLk6GJQsqaUBKTNV-1">
          <mxGeometry x="730" y="290" width="165" height="120" as="geometry" />
        </mxCell>
        <mxCell id="RhxcYOBsnrcNaUZTfR1e-30" style="edgeStyle=orthogonalEdgeStyle;rounded=0;orthogonalLoop=1;jettySize=auto;html=1;fontSize=16;" edge="1" parent="WIyWlLk6GJQsqaUBKTNV-1" source="RhxcYOBsnrcNaUZTfR1e-27" target="RhxcYOBsnrcNaUZTfR1e-23">
          <mxGeometry relative="1" as="geometry" />
        </mxCell>
        <mxCell id="RhxcYOBsnrcNaUZTfR1e-27" value="kredit goture bilersiz" style="shape=document;whiteSpace=wrap;html=1;boundedLbl=1;fontSize=16;" vertex="1" parent="WIyWlLk6GJQsqaUBKTNV-1">
          <mxGeometry x="752.5" y="500" width="120" height="70" as="geometry" />
        </mxCell>
        <mxCell id="RhxcYOBsnrcNaUZTfR1e-32" value="False" style="text;html=1;align=center;verticalAlign=middle;whiteSpace=wrap;rounded=0;fontSize=16;" vertex="1" parent="WIyWlLk6GJQsqaUBKTNV-1">
          <mxGeometry x="910" y="310" width="60" height="30" as="geometry" />
        </mxCell>
        <mxCell id="RhxcYOBsnrcNaUZTfR1e-33" value="True" style="text;html=1;align=center;verticalAlign=middle;whiteSpace=wrap;rounded=0;rotation=90;fontSize=16;" vertex="1" parent="WIyWlLk6GJQsqaUBKTNV-1">
          <mxGeometry x="805" y="440" width="60" height="30" as="geometry" />
        </mxCell>
        <mxCell id="RhxcYOBsnrcNaUZTfR1e-65" style="edgeStyle=orthogonalEdgeStyle;rounded=0;orthogonalLoop=1;jettySize=auto;html=1;entryX=0.5;entryY=0;entryDx=0;entryDy=0;fontSize=16;" edge="1" parent="WIyWlLk6GJQsqaUBKTNV-1" source="RhxcYOBsnrcNaUZTfR1e-36" target="RhxcYOBsnrcNaUZTfR1e-40">
          <mxGeometry relative="1" as="geometry">
            <Array as="points">
              <mxPoint x="-710" y="330" />
              <mxPoint x="-710" y="500" />
            </Array>
          </mxGeometry>
        </mxCell>
        <mxCell id="RhxcYOBsnrcNaUZTfR1e-36" value="a/10&amp;gt;a%10" style="rhombus;whiteSpace=wrap;html=1;fontSize=16;" vertex="1" parent="WIyWlLk6GJQsqaUBKTNV-1">
          <mxGeometry x="-640" y="280" width="165" height="120" as="geometry" />
        </mxCell>
        <mxCell id="RhxcYOBsnrcNaUZTfR1e-38" value="True" style="text;html=1;align=center;verticalAlign=middle;whiteSpace=wrap;rounded=0;fontSize=16;" vertex="1" parent="WIyWlLk6GJQsqaUBKTNV-1">
          <mxGeometry x="-460" y="305" width="60" height="30" as="geometry" />
        </mxCell>
        <mxCell id="RhxcYOBsnrcNaUZTfR1e-46" style="edgeStyle=orthogonalEdgeStyle;rounded=0;orthogonalLoop=1;jettySize=auto;html=1;fontSize=16;" edge="1" parent="WIyWlLk6GJQsqaUBKTNV-1" source="RhxcYOBsnrcNaUZTfR1e-40" target="RhxcYOBsnrcNaUZTfR1e-45">
          <mxGeometry relative="1" as="geometry" />
        </mxCell>
        <mxCell id="RhxcYOBsnrcNaUZTfR1e-40" value="ededin onlugu&amp;gt;tekliyinden" style="shape=document;whiteSpace=wrap;html=1;boundedLbl=1;fontSize=16;" vertex="1" parent="WIyWlLk6GJQsqaUBKTNV-1">
          <mxGeometry x="-780" y="500" width="160" height="100" as="geometry" />
        </mxCell>
        <mxCell id="RhxcYOBsnrcNaUZTfR1e-41" value="True" style="text;html=1;align=center;verticalAlign=middle;whiteSpace=wrap;rounded=0;rotation=-90;fontSize=16;" vertex="1" parent="WIyWlLk6GJQsqaUBKTNV-1">
          <mxGeometry x="-720" y="400" width="60" height="30" as="geometry" />
        </mxCell>
        <mxCell id="RhxcYOBsnrcNaUZTfR1e-43" value="False" style="text;html=1;align=center;verticalAlign=middle;whiteSpace=wrap;rounded=0;rotation=0;fontSize=16;" vertex="1" parent="WIyWlLk6GJQsqaUBKTNV-1">
          <mxGeometry x="-460" y="440" width="60" height="30" as="geometry" />
        </mxCell>
        <mxCell id="RhxcYOBsnrcNaUZTfR1e-45" value="End" style="ellipse;whiteSpace=wrap;html=1;fontSize=16;" vertex="1" parent="WIyWlLk6GJQsqaUBKTNV-1">
          <mxGeometry x="-740" y="670" width="120" height="80" as="geometry" />
        </mxCell>
        <mxCell id="RhxcYOBsnrcNaUZTfR1e-52" style="edgeStyle=orthogonalEdgeStyle;rounded=0;orthogonalLoop=1;jettySize=auto;html=1;entryX=0.5;entryY=1;entryDx=0;entryDy=0;fontSize=16;" edge="1" parent="WIyWlLk6GJQsqaUBKTNV-1" source="RhxcYOBsnrcNaUZTfR1e-47" target="RhxcYOBsnrcNaUZTfR1e-45">
          <mxGeometry relative="1" as="geometry" />
        </mxCell>
        <mxCell id="RhxcYOBsnrcNaUZTfR1e-47" value="ededlin&lt;div style=&quot;font-size: 16px;&quot;&gt;onluqu=tekliyine&lt;/div&gt;" style="shape=document;whiteSpace=wrap;html=1;boundedLbl=1;fontSize=16;" vertex="1" parent="WIyWlLk6GJQsqaUBKTNV-1">
          <mxGeometry x="-300" y="810" width="150" height="90" as="geometry" />
        </mxCell>
        <mxCell id="RhxcYOBsnrcNaUZTfR1e-50" style="edgeStyle=orthogonalEdgeStyle;rounded=0;orthogonalLoop=1;jettySize=auto;html=1;entryX=0.5;entryY=0;entryDx=0;entryDy=0;fontSize=16;" edge="1" parent="WIyWlLk6GJQsqaUBKTNV-1" source="RhxcYOBsnrcNaUZTfR1e-48" target="RhxcYOBsnrcNaUZTfR1e-47">
          <mxGeometry relative="1" as="geometry">
            <mxPoint x="-240" y="729.9999999999998" as="sourcePoint" />
          </mxGeometry>
        </mxCell>
        <mxCell id="RhxcYOBsnrcNaUZTfR1e-75" style="edgeStyle=orthogonalEdgeStyle;rounded=0;orthogonalLoop=1;jettySize=auto;html=1;entryX=0.346;entryY=0.011;entryDx=0;entryDy=0;entryPerimeter=0;fontSize=16;" edge="1" parent="WIyWlLk6GJQsqaUBKTNV-1" source="RhxcYOBsnrcNaUZTfR1e-48" target="RhxcYOBsnrcNaUZTfR1e-57">
          <mxGeometry relative="1" as="geometry">
            <mxPoint x="-470" y="679.9999999999998" as="targetPoint" />
            <Array as="points">
              <mxPoint x="-470" y="580" />
              <mxPoint x="-470" y="665" />
            </Array>
          </mxGeometry>
        </mxCell>
        <mxCell id="RhxcYOBsnrcNaUZTfR1e-48" value="a/10=a%10" style="rhombus;whiteSpace=wrap;html=1;fontSize=16;" vertex="1" parent="WIyWlLk6GJQsqaUBKTNV-1">
          <mxGeometry x="-392.5" y="520" width="165" height="120" as="geometry" />
        </mxCell>
        <mxCell id="RhxcYOBsnrcNaUZTfR1e-49" style="edgeStyle=orthogonalEdgeStyle;rounded=0;orthogonalLoop=1;jettySize=auto;html=1;entryX=0.452;entryY=0.072;entryDx=0;entryDy=0;entryPerimeter=0;fontSize=16;" edge="1" parent="WIyWlLk6GJQsqaUBKTNV-1" source="RhxcYOBsnrcNaUZTfR1e-36" target="RhxcYOBsnrcNaUZTfR1e-48">
          <mxGeometry relative="1" as="geometry">
            <Array as="points">
              <mxPoint x="-547" y="470" />
              <mxPoint x="-318" y="470" />
            </Array>
          </mxGeometry>
        </mxCell>
        <mxCell id="RhxcYOBsnrcNaUZTfR1e-51" value="True" style="text;html=1;align=center;verticalAlign=middle;whiteSpace=wrap;rounded=0;rotation=90;fontSize=16;" vertex="1" parent="WIyWlLk6GJQsqaUBKTNV-1">
          <mxGeometry x="-240" y="744" width="60" height="30" as="geometry" />
        </mxCell>
        <mxCell id="RhxcYOBsnrcNaUZTfR1e-60" style="edgeStyle=orthogonalEdgeStyle;rounded=0;orthogonalLoop=1;jettySize=auto;html=1;fontSize=16;" edge="1" parent="WIyWlLk6GJQsqaUBKTNV-1" source="RhxcYOBsnrcNaUZTfR1e-57">
          <mxGeometry relative="1" as="geometry">
            <mxPoint x="-480" y="850" as="targetPoint" />
            <Array as="points">
              <mxPoint x="-512" y="720" />
              <mxPoint x="-489" y="720" />
              <mxPoint x="-489" y="740" />
            </Array>
          </mxGeometry>
        </mxCell>
        <mxCell id="RhxcYOBsnrcNaUZTfR1e-57" value="ededlin&lt;div style=&quot;font-size: 16px;&quot;&gt;onluqu&amp;lt;tekliyinden&lt;/div&gt;" style="shape=document;whiteSpace=wrap;html=1;boundedLbl=1;fontSize=16;" vertex="1" parent="WIyWlLk6GJQsqaUBKTNV-1">
          <mxGeometry x="-512.5" y="690" width="142.5" height="100" as="geometry" />
        </mxCell>
        <mxCell id="RhxcYOBsnrcNaUZTfR1e-62" value="False" style="text;html=1;align=center;verticalAlign=middle;whiteSpace=wrap;rounded=0;rotation=-90;fontSize=16;" vertex="1" parent="WIyWlLk6GJQsqaUBKTNV-1">
          <mxGeometry x="-475" y="600" width="60" height="30" as="geometry" />
        </mxCell>
        <mxCell id="RhxcYOBsnrcNaUZTfR1e-70" value="" style="endArrow=none;html=1;rounded=0;" edge="1" parent="WIyWlLk6GJQsqaUBKTNV-1">
          <mxGeometry width="50" height="50" relative="1" as="geometry">
            <mxPoint y="1110" as="sourcePoint" />
            <mxPoint y="30" as="targetPoint" />
          </mxGeometry>
        </mxCell>
        <mxCell id="RhxcYOBsnrcNaUZTfR1e-71" value="" style="endArrow=none;html=1;rounded=0;" edge="1" parent="WIyWlLk6GJQsqaUBKTNV-1">
          <mxGeometry width="50" height="50" relative="1" as="geometry">
            <mxPoint x="680" y="1110" as="sourcePoint" />
            <mxPoint x="680" y="30" as="targetPoint" />
          </mxGeometry>
        </mxCell>
        <mxCell id="RhxcYOBsnrcNaUZTfR1e-72" value="&lt;font style=&quot;font-size: 30px;&quot;&gt;2nd Task&lt;/font&gt;" style="text;html=1;align=center;verticalAlign=middle;whiteSpace=wrap;rounded=0;fontSize=30;" vertex="1" parent="WIyWlLk6GJQsqaUBKTNV-1">
          <mxGeometry x="-760" y="50" width="190" height="30" as="geometry" />
        </mxCell>
        <mxCell id="RhxcYOBsnrcNaUZTfR1e-73" value="&lt;font style=&quot;font-size: 31px;&quot;&gt;3rd Task&lt;/font&gt;" style="text;html=1;align=center;verticalAlign=middle;whiteSpace=wrap;rounded=0;" vertex="1" parent="WIyWlLk6GJQsqaUBKTNV-1">
          <mxGeometry x="390" y="50" width="190" height="30" as="geometry" />
        </mxCell>
        <mxCell id="RhxcYOBsnrcNaUZTfR1e-74" value="&lt;font style=&quot;font-size: 31px;&quot;&gt;1st Task&lt;/font&gt;" style="text;html=1;align=center;verticalAlign=middle;whiteSpace=wrap;rounded=0;" vertex="1" parent="WIyWlLk6GJQsqaUBKTNV-1">
          <mxGeometry x="1230" y="50" width="190" height="30" as="geometry" />
        </mxCell>
      </root>
    </mxGraphModel>
  </diagram>
</mxfile>
